# xmcd CD database file
#
# Track frame offsets:
#	150
#	1362
#	16230
#	30875
#	42842
#	57212
#	77485
#	100565
#	120895
#	136745
#	166905
#	189482
#	205120
#	220575
#	237185
#	257840
#	279092
#	296820
#	311787
#	317275
#	330035
#
# Disc length: 4440 seconds
#
# Revision: 2
# Processed by: cddbd v1.5.2PL0 Copyright (c) Steve Scherf et al.
# Submitted via: CDex 1.51
#
DISCID=fa115615
DTITLE=デスマーチ艦隊 - 天国と地獄 ～愛と真実の自爆弾～
DYEAR=2000
DGENRE=パンク
TTITLE0=魂叫 (KODAMA)
TTITLE1=エレクトロ百鬼夜行 (ORPHEE AUX ENFERS)
TTITLE2=ピクニックに行くニック
TTITLE3=労働軍神
TTITLE4=いけにえ
TTITLE5=父と娘と3時のおやつ行進曲
TTITLE6=荒波越えて ～デスマーチ艦隊学校校歌～
TTITLE7=ズガイコツ骨折
TTITLE8=超高速戦車 （ウイリアムテル）
TTITLE9=ユーレイがヨーデル
TTITLE10=道徳防衛軍 ～セカンドミッション～
TTITLE11=いろいろあるけどラララのラ
TTITLE12=筋肉マシーン
TTITLE13=燃えろよ燃えろ
TTITLE14=生まれてこのかた
TTITLE15=自爆弾 ～自爆編～
TTITLE16=椿
TTITLE17=死神艦隊
TTITLE18=デスマーチ艦隊のテーマ （デモテープ）
TTITLE19=毒キノコ会 （デモテープ）
TTITLE20=ヒーワンツハンバーガープリーズ （スモッキンファンに捧ぐ）
EXTD=YEAR: 2000
EXTT0=
EXTT1=
EXTT2=
EXTT3=
EXTT4=
EXTT5=
EXTT6=
EXTT7=
EXTT8=
EXTT9=
EXTT10=
EXTT11=
EXTT12=
EXTT13=
EXTT14=
EXTT15=
EXTT16=
EXTT17=
EXTT18=
EXTT19=
EXTT20=
PLAYORDER=
